<?xml version="1.0" encoding="utf-8"?>
<!-- Generator: Adobe Illustrator 24.3.0, SVG Export Plug-In . SVG Version: 6.00 Build 0)  -->
<svg version="1.1" id="Layer_1" xmlns="http://www.w3.org/2000/svg" xmlns:xlink="http://www.w3.org/1999/xlink" x="0px" y="0px"
	 viewBox="0 0 176.3 49" style="enable-background:new 0 0 176.3 49;" xml:space="preserve">
<style type="text/css">
	.st0{clip-path:url(#SVGID_2_);}
	.st1{fill:url(#SVGID_3_);}
	.st2{clip-path:url(#SVGID_5_);}
	.st3{fill:url(#SVGID_6_);}
	.st4{clip-path:url(#SVGID_8_);}
	.st5{fill:url(#SVGID_9_);}
	.st6{clip-path:url(#SVGID_11_);}
	.st7{fill:url(#SVGID_12_);}
	.st8{fill:#3941AB;}
	.st9{clip-path:url(#SVGID_14_);}
	.st10{fill:url(#SVGID_15_);}
	.st11{clip-path:url(#SVGID_17_);}
	.st12{fill:url(#SVGID_18_);}
	.st13{clip-path:url(#SVGID_20_);}
	.st14{fill:url(#SVGID_21_);}
</style>
<g>
	<defs>
		<path id="SVGID_1_" d="M10.4,20.3h6.3C19,10.4,29,4.3,38.9,6.7c1.2,0.3,2.4,0.7,3.5,1.2h10.3c-9.2-10-24.8-10.5-34.7-1.3
			C14,10.2,11.3,15,10.4,20.3"/>
	</defs>
	<clipPath id="SVGID_2_">
		<use xlink:href="#SVGID_1_"  style="overflow:visible;"/>
	</clipPath>
	<g class="st0">
		
			<linearGradient id="SVGID_3_" gradientUnits="userSpaceOnUse" x1="-121.548" y1="-30.0985" x2="-120.548" y2="-30.0985" gradientTransform="matrix(50.57 0 0 -50.57 6158.7598 -1511.9077)">
			<stop  offset="0" style="stop-color:#7A98FF"/>
			<stop  offset="1" style="stop-color:#C2D7FF"/>
		</linearGradient>
		<rect x="10.4" y="0" class="st1" width="42.2" height="20.4"/>
	</g>
</g>
<g>
	<defs>
		<path id="SVGID_4_" d="M52.9,26.6c-1.2,10.1-10.4,17.3-20.5,16c-3.2-0.4-6.2-1.6-8.8-3.5H15c8.1,10.9,23.5,13.1,34.4,5
			c5.6-4.2,9.1-10.5,9.8-17.5H52.9z"/>
	</defs>
	<clipPath id="SVGID_5_">
		<use xlink:href="#SVGID_4_"  style="overflow:visible;"/>
	</clipPath>
	<g class="st2">
		
			<linearGradient id="SVGID_6_" gradientUnits="userSpaceOnUse" x1="-121.6533" y1="-30.0597" x2="-120.6533" y2="-30.0597" gradientTransform="matrix(52.84 0 0 -52.84 6444.8501 -1550.5625)">
			<stop  offset="0" style="stop-color:#7A98FF"/>
			<stop  offset="1" style="stop-color:#C2D7FF"/>
		</linearGradient>
		<rect x="15" y="26.6" class="st3" width="44.1" height="22.3"/>
	</g>
</g>
<g>
	<defs>
		<path id="SVGID_7_" d="M22.8,25.8c0.2,6.3,5.5,11.2,11.8,11c5.7-0.2,10.4-4.5,11-10.2h-6.4c-0.7,2.7-3.5,4.3-6.2,3.6
			c-2.7-0.7-4.3-3.5-3.6-6.2c0.6-2.2,2.6-3.8,4.9-3.8h27c3.5,0,6.3-2.8,6.3-6.3H34.2c-6.3,0-11.4,5.1-11.4,11.4
			C22.8,25.5,22.8,25.7,22.8,25.8"/>
	</defs>
	<clipPath id="SVGID_8_">
		<use xlink:href="#SVGID_7_"  style="overflow:visible;"/>
	</clipPath>
	<g class="st4">
		
			<linearGradient id="SVGID_9_" gradientUnits="userSpaceOnUse" x1="-121.3253" y1="-30.2486" x2="-120.3253" y2="-30.2486" gradientTransform="matrix(46.36 0 0 -46.36 5647.5103 -1376.848)">
			<stop  offset="0" style="stop-color:#7A98FF"/>
			<stop  offset="1" style="stop-color:#C2D7FF"/>
		</linearGradient>
		<rect x="22.5" y="13.9" class="st5" width="45" height="23"/>
	</g>
</g>
<g>
	<defs>
		<path id="SVGID_10_" d="M6.2,26.7c-3.5,0-6.3,2.8-6.3,6.2c0,0,0,0,0,0h18.6c-1-2-1.7-4.1-1.9-6.2L6.2,26.7z"/>
	</defs>
	<clipPath id="SVGID_11_">
		<use xlink:href="#SVGID_10_"  style="overflow:visible;"/>
	</clipPath>
	<g class="st6">
		
			<linearGradient id="SVGID_12_" gradientUnits="userSpaceOnUse" x1="-119.546" y1="-31.3138" x2="-118.546" y2="-31.3138" gradientTransform="matrix(27.84 0 0 -27.84 3323.0801 -842.0025)">
			<stop  offset="0" style="stop-color:#C2D7FF"/>
			<stop  offset="1" style="stop-color:#7A98FF"/>
		</linearGradient>
		<rect y="26.6" class="st7" width="18.6" height="6.3"/>
	</g>
</g>
<path class="st8" d="M114.3,27.4c0.1,4-3,7.4-7,7.5c0,0,0,0,0,0c-1.5,0-2.9-0.6-4-1.6v5.9H99V20.1h3.5l0.3,1.6
	c1.2-1.2,2.7-1.9,4.4-1.9C111.2,20,114.4,23.3,114.3,27.4C114.3,27.3,114.3,27.4,114.3,27.4 M110.1,27.4c0-1.9-1.5-3.4-3.4-3.5
	c-1.9,0-3.4,1.5-3.5,3.4c0,1.9,1.5,3.4,3.4,3.5c1.8,0.1,3.4-1.4,3.4-3.3C110,27.5,110,27.4,110.1,27.4"/>
<path class="st8" d="M130.6,28.8h-10.4c0.6,1.6,2.2,2.7,3.9,2.5c1.3,0.1,2.5-0.4,3.5-1.2l2.4,2.6c-1.6,1.5-3.7,2.3-5.9,2.2
	c-4.8,0-8.1-3-8.1-7.4c-0.1-4.1,3.1-7.5,7.2-7.6c0.1,0,0.3,0,0.4,0c3.8-0.1,6.9,2.8,7.1,6.6c0,0.2,0,0.3,0,0.5
	C130.8,27.5,130.7,28.1,130.6,28.8 M120.2,25.7h6.7c0-0.3-0.1-0.5-0.2-0.7c-0.4-1-1.5-1.5-3-1.5C122.1,23.2,120.7,24.2,120.2,25.7"
	/>
<path class="st8" d="M142.3,20v4.2c-0.4-0.1-0.9-0.1-1.4-0.2c-1.7-0.2-3.2,1-3.4,2.7c0,0.2,0,0.4,0,0.7v7.2h-4.2V20.1h3.5l0.3,1.9
	c1.1-1.3,2.7-2,4.3-2C141.7,20,142,20,142.3,20"/>
<path class="st8" d="M154.3,14.7h4.2v19.9H155l-0.3-1.7c-1.2,1.2-2.7,1.9-4.4,1.9c-4.1-0.2-7.3-3.7-7.1-7.9c0.2-3.8,3.3-6.9,7.1-7.1
	c1.5,0,2.9,0.6,4,1.6L154.3,14.7z M154.3,27.3c0-1.9-1.6-3.4-3.5-3.4c-1.9,0-3.4,1.6-3.4,3.4s1.6,3.4,3.4,3.4
	c1.8,0.1,3.4-1.4,3.4-3.2C154.3,27.5,154.3,27.4,154.3,27.3"/>
<path class="st8" d="M161,27.3c-0.1-4.2,3.3-7.7,7.5-7.8c4.2-0.1,7.7,3.3,7.8,7.5c0.1,4.2-3.3,7.7-7.5,7.8c0,0-0.1,0-0.1,0
	c-4.1,0.1-7.5-3.2-7.6-7.3C161,27.5,161,27.4,161,27.3 M172.1,27.3c0-1.9-1.6-3.4-3.4-3.4c-1.9,0-3.4,1.6-3.4,3.4
	c0,1.9,1.6,3.4,3.4,3.4c1.8,0.1,3.4-1.4,3.4-3.2C172.1,27.5,172.1,27.4,172.1,27.3"/>
<path class="st8" d="M75.8,24.7c0-5.6,4.5-10.2,10.1-10.2c5.6,0,10.2,4.5,10.2,10.1S91.6,34.7,86,34.8c0,0-0.1,0-0.1,0
	c-5.5,0.1-10.1-4.3-10.2-9.8C75.7,24.8,75.7,24.8,75.8,24.7 M91.3,24.7c-0.1-3-2.5-5.4-5.5-5.3c-3,0.1-5.4,2.5-5.3,5.5
	c0.1,2.9,2.5,5.3,5.4,5.3c2.9,0.1,5.4-2.3,5.4-5.2C91.3,24.9,91.3,24.8,91.3,24.7"/>
<g>
	<defs>
		<path id="SVGID_13_" d="M81.4,15.5c-2.7,1.3-4.7,3.8-5.3,6.7c-0.3,1.2,0.5,2.4,1.7,2.7c0.2,0,0.3,0.1,0.5,0.1h0.1
			c1,0,1.9-0.7,2.2-1.7c0.4-1.6,1.4-2.9,2.8-3.6c1.1-0.6,2.4-0.7,3.7-0.4c1,0.2,2-0.2,2.5-1.1v-0.1c0.6-1.1,0.2-2.5-0.9-3.1
			c-0.2-0.1-0.4-0.2-0.6-0.2c-0.7-0.2-1.5-0.2-2.2-0.2C84.3,14.6,82.8,14.9,81.4,15.5"/>
	</defs>
	<clipPath id="SVGID_14_">
		<use xlink:href="#SVGID_13_"  style="overflow:visible;"/>
	</clipPath>
	<g class="st9">
		<g>
			
				<linearGradient id="SVGID_15_" gradientUnits="userSpaceOnUse" x1="-134.7189" y1="-38.9496" x2="-133.7189" y2="-38.9496" gradientTransform="matrix(-9.4953 2.1695 -2.1695 -9.4953 -1273.7899 -59.3356)">
				<stop  offset="0" style="stop-color:#7A98FF"/>
				<stop  offset="1" style="stop-color:#3741B0"/>
				<stop  offset="1" style="stop-color:#3741B0"/>
			</linearGradient>
			<polygon class="st10" points="73.5,15.1 89.7,11.4 92.7,24.5 76.5,28.2 			"/>
		</g>
	</g>
</g>
<g>
	<defs>
		<path id="SVGID_16_" d="M78.4,24.7c-1.3,0-2.3,1.1-2.3,2.4c0,0.2,0,0.5,0.1,0.7c0.7,2.2,2.1,4.1,4.1,5.3c3.3,2.1,7.6,2.2,11,0.2
			l-2.3-4c-1.9,1.2-4.2,1.2-6.1,0c-1.1-0.7-1.8-1.7-2.2-2.9C80.5,25.3,79.5,24.6,78.4,24.7L78.4,24.7"/>
	</defs>
	<clipPath id="SVGID_17_">
		<use xlink:href="#SVGID_16_"  style="overflow:visible;"/>
	</clipPath>
	<g class="st11">
		<g>
			
				<linearGradient id="SVGID_18_" gradientUnits="userSpaceOnUse" x1="-110.3797" y1="-32.6845" x2="-109.3797" y2="-32.6845" gradientTransform="matrix(6.9047 7.4669 -7.4669 6.9047 596.4846 1074.3097)">
				<stop  offset="0" style="stop-color:#7A98FF"/>
				<stop  offset="1" style="stop-color:#3741B0"/>
				<stop  offset="1" style="stop-color:#3741B0"/>
			</linearGradient>
			<polygon class="st12" points="70.4,29.6 84.1,16.9 96.6,30.4 82.9,43.1 			"/>
		</g>
	</g>
</g>
<g>
	<defs>
		<path id="SVGID_19_" d="M88.8,19.9c1.9,1.2,2.8,3.4,2.4,5.6c-0.2,1.2-0.8,2.4-1.8,3.2c-0.8,0.7-1,1.8-0.6,2.8
			c0.6,1.2,2,1.7,3.2,1.1c0.2-0.1,0.4-0.2,0.6-0.4c1.7-1.5,2.9-3.6,3.2-5.9c0.7-3.9-1-7.9-4.3-10.2L88.8,19.9z"/>
	</defs>
	<clipPath id="SVGID_20_">
		<use xlink:href="#SVGID_19_"  style="overflow:visible;"/>
	</clipPath>
	<g class="st13">
		<g>
			
				<linearGradient id="SVGID_21_" gradientUnits="userSpaceOnUse" x1="-125.9952" y1="-14.7061" x2="-124.9952" y2="-14.7061" gradientTransform="matrix(3.9583 -9.4765 9.4765 3.9583 727.6136 -1103.7532)">
				<stop  offset="0" style="stop-color:#7A98FF"/>
				<stop  offset="1" style="stop-color:#3741B0"/>
				<stop  offset="1" style="stop-color:#3741B0"/>
			</linearGradient>
			<polygon class="st14" points="82.4,30.8 89.7,13.3 102.7,18.8 95.4,36.2 			"/>
		</g>
	</g>
</g>
</svg>
