<svg width="39" height="28" viewBox="0 0 39 28" fill="none" xmlns="http://www.w3.org/2000/svg">
<path d="M5.96191 11.6373H9.55603C10.6456 6.98631 14.8237 3.52254 19.8093 3.52254C21.3927 3.52254 22.8978 3.87127 24.2421 4.50211H30.1134C27.5501 1.73188 23.8815 0 19.8093 0C12.868 0 7.10247 5.02717 5.96191 11.6373Z" fill="url(#paint0_linear_8488_2466)"/>
<path d="M19.8093 28C27.1386 28 33.1589 22.389 33.8017 15.2224H30.2585C29.6314 20.4377 25.1907 24.4774 19.8093 24.4774C17.4381 24.4774 15.251 23.6938 13.4912 22.3694H8.56055C11.1239 25.7861 15.2079 28 19.8093 28Z" fill="url(#paint1_linear_8488_2466)"/>
<path d="M13.1689 14.2037C13.0278 10.4813 16.0065 7.42114 19.6986 7.42114C19.7378 7.42114 19.7731 7.42114 19.8123 7.42506H38.7549C38.7549 9.41947 37.1401 11.0338 35.1451 11.0338H19.9808C19.9808 11.0338 19.9808 11.0338 19.9769 11.0338H19.8123C19.7731 11.0338 19.7339 11.0338 19.6986 11.0338C17.9819 11.0338 16.6141 12.5502 16.8218 14.3056C16.9786 15.6182 18.0329 16.6722 19.3498 16.829C20.851 17.0053 22.16 16.0335 22.5089 14.6739H26.1931C25.8247 18.0162 22.9322 20.5984 19.4635 20.4769C15.9948 20.3554 13.3021 17.5969 13.1728 14.2037H13.1689Z" fill="url(#paint2_linear_8488_2466)"/>
<path d="M0 18.8157H10.6452C10.0808 17.7225 9.70451 16.5156 9.55165 15.2422H3.57452C1.59913 15.2422 0 16.8408 0 18.8157Z" fill="url(#paint3_linear_8488_2466)"/>
<defs>
<linearGradient id="paint0_linear_8488_2466" x1="6.9065" y1="5.81866" x2="35.8358" y2="5.81866" gradientUnits="userSpaceOnUse">
<stop stop-color="#8096F7"/>
<stop offset="1" stop-color="#C5D5FA"/>
</linearGradient>
<linearGradient id="paint1_linear_8488_2466" x1="9.54824" y1="21.6131" x2="39.7788" y2="21.6131" gradientUnits="userSpaceOnUse">
<stop stop-color="#8096F7"/>
<stop offset="1" stop-color="#C5D5FA"/>
</linearGradient>
<linearGradient id="paint2_linear_8488_2466" x1="13.2237" y1="13.9529" x2="39.7426" y2="13.9529" gradientUnits="userSpaceOnUse">
<stop stop-color="#8096F7"/>
<stop offset="1" stop-color="#C5D5FA"/>
</linearGradient>
<linearGradient id="paint3_linear_8488_2466" x1="-2.90822" y1="17.0289" x2="13.0203" y2="17.0289" gradientUnits="userSpaceOnUse">
<stop stop-color="#C5D5FA"/>
<stop offset="1" stop-color="#8096F7"/>
</linearGradient>
</defs>
</svg>
