<svg id="Layer_1" data-name="Layer 1" xmlns="http://www.w3.org/2000/svg" xmlns:xlink="http://www.w3.org/1999/xlink" viewBox="0 0 176.31 48.96"><defs><style>.cls-1{fill:url(#linear-gradient);}.cls-2{fill:url(#linear-gradient-2);}.cls-3{fill:url(#linear-gradient-3);}.cls-4{fill:none;}.cls-5{clip-path:url(#clip-path);}.cls-6{fill:url(#linear-gradient-4);}.cls-7{clip-path:url(#clip-path-2);}.cls-8{fill:url(#linear-gradient-5);}.cls-9{clip-path:url(#clip-path-3);}.cls-10{fill:url(#linear-gradient-6);}.cls-11{clip-path:url(#clip-path-4);}.cls-12{fill:url(#linear-gradient-7);}.cls-13{fill:#fff;}.cls-14{clip-path:url(#clip-path-5);}.cls-15{mask:url(#mask);}.cls-16{fill:url(#linear-gradient-8);}.cls-17{clip-path:url(#clip-path-6);}.cls-18{mask:url(#mask-2);}.cls-19{fill:url(#linear-gradient-9);}.cls-20{clip-path:url(#clip-path-7);}.cls-21{mask:url(#mask-3);}.cls-22{fill:url(#linear-gradient-10);}</style><linearGradient id="linear-gradient" y1="153.08" x2="1" y2="153.08" gradientTransform="matrix(0, 10.17, 10.17, 0, -1434.08, 74.49)" gradientUnits="userSpaceOnUse"><stop offset="0" stop-color="#fff"/><stop offset="1"/><stop offset="1"/></linearGradient><linearGradient id="linear-gradient-2" y1="153.1" y2="153.1" gradientTransform="matrix(-9.74, 0, 0, 9.74, 129.49, -1419.67)" xlink:href="#linear-gradient"/><linearGradient id="linear-gradient-3" y1="153.01" y2="153.01" gradientTransform="matrix(10.27, 0, 0, -10.27, 124.1, 1648.66)" xlink:href="#linear-gradient"/><clipPath id="clip-path" transform="translate(-39.4 -52.05)"><path class="cls-4" d="M49.82,72.4H56.1A18.42,18.42,0,0,1,81.78,59.92H92.05A24.57,24.57,0,0,0,49.82,72.4"/></clipPath><linearGradient id="linear-gradient-4" y1="153.07" x2="1" y2="153.07" gradientTransform="translate(12.08 -7730.09) scale(50.57)" gradientUnits="userSpaceOnUse"><stop offset="0" stop-color="#7a98ff"/><stop offset="1" stop-color="#c2d7ff"/></linearGradient><clipPath id="clip-path-2" transform="translate(-39.4 -52.05)"><path class="cls-4" d="M92.3,78.67A18.4,18.4,0,0,1,63,91.17H54.36a24.56,24.56,0,0,0,44.13-12.5Z"/></clipPath><linearGradient id="linear-gradient-5" y1="153.07" y2="153.07" gradientTransform="translate(16.69 -8051.19) scale(52.84)" xlink:href="#linear-gradient-4"/><clipPath id="clip-path-3" transform="translate(-39.4 -52.05)"><path class="cls-4" d="M62.19,77.86a11.41,11.41,0,0,0,22.75.83H78.5a5.07,5.07,0,1,1-4.9-6.37h27A6.32,6.32,0,0,0,106.91,66H73.6A11.41,11.41,0,0,0,62.19,77.86"/></clipPath><linearGradient id="linear-gradient-6" y1="153.07" y2="153.07" gradientTransform="translate(22.87 -7071.2) scale(46.36)" xlink:href="#linear-gradient-4"/><clipPath id="clip-path-4" transform="translate(-39.4 -52.05)"><path class="cls-4" d="M45.65,78.71A6.25,6.25,0,0,0,39.4,85H58a18.2,18.2,0,0,1-1.91-6.25Z"/></clipPath><linearGradient id="linear-gradient-7" y1="153.07" x2="1" y2="153.07" gradientTransform="translate(-5.08 -4232) scale(27.84)" gradientUnits="userSpaceOnUse"><stop offset="0" stop-color="#c2d7ff"/><stop offset="1" stop-color="#7a98ff"/></linearGradient><clipPath id="clip-path-5" transform="translate(-39.4 -52.05)"><path class="cls-4" d="M117.83,76.73a2.36,2.36,0,0,0-2.19,3.09,9.88,9.88,0,0,0,4.07,5.34,10.44,10.44,0,0,0,11,.15l-2.29-4a5.55,5.55,0,0,1-6.1,0,5.1,5.1,0,0,1-2.17-2.94,2.33,2.33,0,0,0-2.25-1.67h-.06"/></clipPath><mask id="mask" x="70.45" y="16.92" width="26.15" height="26.13" maskUnits="userSpaceOnUse"><g transform="translate(-39.4 -52.05)"><rect class="cls-1" x="113.61" y="72.86" width="18.63" height="18.36" transform="translate(-23.03 105.26) rotate(-42.76)"/></g></mask><linearGradient id="linear-gradient-8" y1="153.08" x2="1" y2="153.08" gradientTransform="matrix(0, 10.17, 10.17, 0, -1434.08, 74.49)" gradientUnits="userSpaceOnUse"><stop offset="0" stop-color="#7a98ff"/><stop offset="1" stop-color="#3741b0"/><stop offset="1" stop-color="#3741b0"/></linearGradient><clipPath id="clip-path-6" transform="translate(-39.4 -52.05)"><path class="cls-4" d="M120.81,67.6a9.83,9.83,0,0,0-5.31,6.7,2.26,2.26,0,0,0,2.21,2.76h.08a2.27,2.27,0,0,0,2.2-1.7,5.32,5.32,0,0,1,2.85-3.6,5.5,5.5,0,0,1,3.67-.42,2.3,2.3,0,0,0,2.54-1.12l0-.07a2.28,2.28,0,0,0-1.54-3.31,10.93,10.93,0,0,0-2.22-.23,10.73,10.73,0,0,0-4.52,1"/></clipPath><mask id="mask-2" x="73.49" y="11.37" width="19.2" height="16.82" maskUnits="userSpaceOnUse"><g transform="translate(-39.4 -52.05)"><rect class="cls-2" x="114.18" y="65.11" width="16.62" height="13.46" transform="translate(-12.92 29.09) rotate(-12.87)"/></g></mask><linearGradient id="linear-gradient-9" y1="153.1" x2="1" y2="153.1" gradientTransform="matrix(-9.74, 0, 0, 9.74, 129.49, -1419.67)" xlink:href="#linear-gradient-8"/><clipPath id="clip-path-7" transform="translate(-39.4 -52.05)"><path class="cls-4" d="M128.25,72a5.64,5.64,0,0,1,2.45,5.64,5.12,5.12,0,0,1-1.77,3.19,2.34,2.34,0,0,0-.56,2.8,2.37,2.37,0,0,0,3.73.7,10.11,10.11,0,0,0,3.23-5.91A10,10,0,0,0,131,68.26Z"/></clipPath><mask id="mask-3" x="82.4" y="13.33" width="20.28" height="22.91" maskUnits="userSpaceOnUse"><g transform="translate(-39.4 -52.05)"><rect class="cls-3" x="122.47" y="69.81" width="18.95" height="14.06" transform="translate(10.2 168.98) rotate(-67.33)"/></g></mask><linearGradient id="linear-gradient-10" y1="153.01" x2="1" y2="153.01" gradientTransform="matrix(10.27, 0, 0, -10.27, 124.1, 1648.66)" xlink:href="#linear-gradient-8"/></defs><g class="cls-5"><rect class="cls-6" x="10.42" width="42.22" height="20.35"/></g><g class="cls-7"><rect class="cls-8" x="14.96" y="26.62" width="44.13" height="22.34"/></g><g class="cls-9"><rect class="cls-10" x="22.54" y="13.95" width="44.97" height="23.05"/></g><g class="cls-11"><rect class="cls-12" y="26.65" width="18.61" height="6.25"/></g><path class="cls-13" d="M153.66,79.42a7.26,7.26,0,0,1-7.07,7.48,5.93,5.93,0,0,1-4-1.56v5.87h-4.16V72.15h3.48l.29,1.64a6.14,6.14,0,0,1,4.4-1.88,7.27,7.27,0,0,1,7.07,7.51m-4.21,0A3.44,3.44,0,1,0,146,82.84a3.35,3.35,0,0,0,3.44-3.42" transform="translate(-39.4 -52.05)"/><path class="cls-13" d="M170,80.81H159.56a3.83,3.83,0,0,0,3.91,2.52,4.94,4.94,0,0,0,3.47-1.22l2.38,2.61a8.06,8.06,0,0,1-5.85,2.18c-4.77,0-8.05-3-8.05-7.41a7.4,7.4,0,0,1,7.66-7.58A6.84,6.84,0,0,1,170.17,79a7.17,7.17,0,0,1-.15,1.78m-10.46-3.06h6.67a2.17,2.17,0,0,0-.17-.73c-.41-1-1.49-1.54-3-1.54a3.33,3.33,0,0,0-3.49,2.27" transform="translate(-39.4 -52.05)"/><path class="cls-13" d="M181.67,72.08v4.21a6.71,6.71,0,0,0-1.35-.15,3.06,3.06,0,0,0-3.4,3.35v7.17h-4.16V72.15h3.45l.32,1.86a5.73,5.73,0,0,1,4.31-2c.26,0,.53,0,.83,0" transform="translate(-39.4 -52.05)"/><path class="cls-13" d="M193.68,66.75h4.16V86.66h-3.48L194.07,85a6.14,6.14,0,0,1-4.4,1.88,7.51,7.51,0,0,1,0-15,5.93,5.93,0,0,1,4,1.56Zm0,12.64a3.44,3.44,0,1,0-3.43,3.45,3.34,3.34,0,0,0,3.43-3.45" transform="translate(-39.4 -52.05)"/><path class="cls-13" d="M200.43,79.39a7.65,7.65,0,1,1,7.65,7.51,7.47,7.47,0,0,1-7.65-7.51m11.08,0a3.44,3.44,0,1,0-3.43,3.45,3.34,3.34,0,0,0,3.43-3.45" transform="translate(-39.4 -52.05)"/><path class="cls-13" d="M115.15,76.71a10.18,10.18,0,1,1,10.16,10.11,10,10,0,0,1-10.16-10.11m15.58,0a5.41,5.41,0,1,0-5.42,5.51,5.31,5.31,0,0,0,5.42-5.51" transform="translate(-39.4 -52.05)"/><g class="cls-14"><g class="cls-15"><rect class="cls-16" x="113.61" y="72.86" width="18.63" height="18.36" transform="translate(-62.43 53.21) rotate(-42.76)"/></g></g><g class="cls-17"><g class="cls-18"><rect class="cls-19" x="114.18" y="65.11" width="16.62" height="13.46" transform="translate(-52.33 -22.96) rotate(-12.87)"/></g></g><g class="cls-20"><g class="cls-21"><rect class="cls-22" x="122.47" y="69.81" width="18.95" height="14.06" transform="translate(-29.21 116.93) rotate(-67.33)"/></g></g></svg>