<svg width="27" height="26" viewBox="0 0 27 26" fill="none" xmlns="http://www.w3.org/2000/svg">
<rect x="0.785645" y="0.5" width="25.7143" height="25" rx="5" fill="white"/>
<path d="M13.0475 16.5714V13.5952H10.0713C9.74257 13.5952 9.47607 13.3288 9.47607 13C9.47607 12.6713 9.74257 12.4048 10.0713 12.4048H13.0475V9.42858C13.0475 9.09984 13.314 8.83334 13.6427 8.83334C13.9715 8.83334 14.238 9.09984 14.238 9.42858V12.4048H17.2142C17.5429 12.4048 17.8094 12.6713 17.8094 13C17.8094 13.3288 17.5429 13.5952 17.2142 13.5952H14.238V16.5714C14.238 16.9002 13.9715 17.1667 13.6427 17.1667C13.314 17.1667 13.0475 16.9002 13.0475 16.5714Z" fill="#3941AB"/>
</svg>
