<svg width="20" height="21" viewBox="0 0 20 21" fill="none" xmlns="http://www.w3.org/2000/svg">
<path d="M10.0001 3.83333C8.23197 3.83333 6.53628 4.53571 5.28604 5.78596C4.03579 7.0362 3.33341 8.73189 3.33341 10.5C3.33341 12.2681 4.03579 13.9638 5.28604 15.214C6.53628 16.4643 8.23197 17.1667 10.0001 17.1667C11.7682 17.1667 13.4639 16.4643 14.7141 15.214C15.9644 13.9638 16.6667 12.2681 16.6667 10.5C16.6667 8.73189 15.9644 7.0362 14.7141 5.78596C13.4639 4.53571 11.7682 3.83333 10.0001 3.83333ZM1.66675 10.5C1.66675 5.8975 5.39758 2.16667 10.0001 2.16667C14.6026 2.16667 18.3334 5.8975 18.3334 10.5C18.3334 15.1025 14.6026 18.8333 10.0001 18.8333C5.39758 18.8333 1.66675 15.1025 1.66675 10.5Z" fill="white"/>
<path d="M10 8.83333C10.221 8.83333 10.433 8.92113 10.5893 9.07741C10.7455 9.23369 10.8333 9.44565 10.8333 9.66667V14.6667C10.8333 14.8877 10.7455 15.0996 10.5893 15.2559C10.433 15.4122 10.221 15.5 10 15.5C9.77899 15.5 9.56702 15.4122 9.41074 15.2559C9.25446 15.0996 9.16667 14.8877 9.16667 14.6667V9.66667C9.16667 9.44565 9.25446 9.23369 9.41074 9.07741C9.56702 8.92113 9.77899 8.83333 10 8.83333ZM11.25 6.75C11.25 7.08152 11.1183 7.39946 10.8839 7.63388C10.6495 7.8683 10.3315 8 10 8C9.66848 8 9.35054 7.8683 9.11612 7.63388C8.8817 7.39946 8.75 7.08152 8.75 6.75C8.75 6.41848 8.8817 6.10054 9.11612 5.86612C9.35054 5.6317 9.66848 5.5 10 5.5C10.3315 5.5 10.6495 5.6317 10.8839 5.86612C11.1183 6.10054 11.25 6.41848 11.25 6.75Z" fill="white"/>
</svg>
