<svg width="27" height="25" viewBox="0 0 27 25" fill="none" xmlns="http://www.w3.org/2000/svg">
<rect x="0.785645" width="25.7143" height="25" rx="5" fill="white"/>
<path d="M17.6958 9.07738H18.5053C18.3922 8.91667 18.2732 8.76786 18.1482 8.61905L17.6958 9.07738Z" fill="#4752E1"/>
<path d="M17.5233 7.98809C17.3745 7.86309 17.2257 7.74405 17.0649 7.63095V8.44047L17.5233 7.98809Z" fill="#4752E1"/>
<path d="M18.1544 8.61905L19.9103 6.86309C20.083 6.69047 20.083 6.40476 19.9103 6.23214C19.7377 6.05952 19.452 6.05952 19.2794 6.23214L17.5234 7.98809C17.7496 8.18452 17.958 8.39881 18.1544 8.61905Z" fill="#4752E1"/>
<path d="M17.0651 7.14285C17.0651 6.89881 16.8627 6.69643 16.6187 6.69643C16.3806 6.69643 16.1901 6.8869 16.1782 7.11905C16.4877 7.26786 16.7854 7.43452 17.0651 7.63095V7.14285Z" fill="#4752E1"/>
<path d="M19.4458 9.52381C19.4458 9.27976 19.2435 9.07738 18.9994 9.07738H18.5054C18.7018 9.35714 18.8744 9.65476 19.0173 9.96428C19.2554 9.95238 19.4458 9.7619 19.4458 9.52381Z" fill="#4752E1"/>
<path d="M14.0889 14.1369H14.2674C14.4996 14.1369 14.6841 13.9286 14.6841 13.6726C14.6841 13.3512 14.5948 13.3036 14.3924 13.2321L14.0889 13.125V14.1369Z" fill="#4752E1"/>
<path d="M19.0233 9.96429C19.0173 9.96429 19.0114 9.97024 18.9995 9.97024H16.6185C16.559 9.97024 16.5054 9.95834 16.4459 9.93453C16.3388 9.88691 16.2495 9.80358 16.2018 9.69048C16.184 9.63691 16.1721 9.58334 16.1721 9.52381V7.14286C16.1721 7.13691 16.178 7.13096 16.178 7.11905C15.4042 6.75596 14.5471 6.54762 13.6423 6.54762C10.3566 6.54762 7.68994 9.21429 7.68994 12.5C7.68994 15.7857 10.3566 18.4524 13.6423 18.4524C16.928 18.4524 19.5947 15.7857 19.5947 12.5C19.5947 11.5952 19.3864 10.7381 19.0233 9.96429ZM14.684 12.3929C15.0649 12.5238 15.5768 12.8036 15.5768 13.6786C15.5768 14.4226 14.9876 15.0357 14.2673 15.0357H14.0888V15.1845C14.0888 15.4286 13.8864 15.631 13.6423 15.631C13.3983 15.631 13.1959 15.4286 13.1959 15.1845V15.0357H13.1483C12.3566 15.0357 11.7078 14.3691 11.7078 13.5476C11.7078 13.2976 11.9102 13.0952 12.1542 13.0952C12.3983 13.0952 12.6007 13.2976 12.6007 13.5417C12.6007 13.8691 12.8447 14.1369 13.1483 14.1369H13.1959V12.8155L12.6007 12.6071C12.2197 12.4762 11.7078 12.1964 11.7078 11.3214C11.7078 10.5774 12.2971 9.96429 13.0173 9.96429H13.1959V9.82143C13.1959 9.57738 13.3983 9.375 13.6423 9.375C13.8864 9.375 14.0888 9.57738 14.0888 9.82143V9.97024H14.1364C14.928 9.97024 15.5768 10.6369 15.5768 11.4583C15.5768 11.7024 15.3745 11.9048 15.1304 11.9048C14.8864 11.9048 14.684 11.7024 14.684 11.4583C14.684 11.131 14.4399 10.8631 14.1364 10.8631H14.0888V12.1845L14.684 12.3929Z" fill="#4752E1"/>
<path d="M12.6006 11.3274C12.6006 11.6488 12.6899 11.6964 12.8923 11.7679L13.1958 11.875V10.8631H13.0173C12.7911 10.8631 12.6006 11.0714 12.6006 11.3274Z" fill="#4752E1"/>
</svg>
