<svg width="72" height="70" viewBox="0 0 72 70" fill="none" xmlns="http://www.w3.org/2000/svg">
<rect x="-0.00012207" width="72" height="70" rx="6" fill="white"/>
<path d="M50.9499 41.8C50.5499 46.25 47.3333 49.1667 42.6666 49.1667H27.6666C23.0666 49.1667 19.3333 45.4333 19.3333 40.8333V29.1667C19.3333 24.6333 22.0666 21.4667 26.3166 20.9333C26.7499 20.8667 27.1999 20.8333 27.6666 20.8333H42.6666C43.0999 20.8333 43.5166 20.85 43.9166 20.9167C47.8999 21.3833 50.5999 24.1667 50.9499 28.2C50.9999 28.6833 50.5999 29.0833 50.1166 29.0833H47.5333C45.9333 29.0833 44.4499 29.7 43.3833 30.8C42.1166 32.0333 41.4833 33.7667 41.6333 35.5C41.8999 38.5333 44.5666 40.9167 47.7333 40.9167H50.1166C50.5999 40.9167 50.9999 41.3167 50.9499 41.8Z" fill="#3941AB"/>
<path d="M52.6666 33.2833V36.7167C52.6666 37.6333 51.9332 38.3833 50.9999 38.4167H47.7333C45.9333 38.4167 44.2832 37.1 44.1332 35.3C44.0332 34.25 44.4332 33.2667 45.1332 32.5833C45.7499 31.95 46.5999 31.5833 47.5332 31.5833H50.9999C51.9332 31.6167 52.6666 32.3667 52.6666 33.2833Z" fill="#3941AB"/>
</svg>
