<svg width="73" height="70" viewBox="0 0 73 70" fill="none" xmlns="http://www.w3.org/2000/svg">
<rect x="0.333496" width="72" height="70" rx="6" fill="white"/>
<path d="M33.4169 31.7167C33.4169 32.6167 33.6669 32.75 34.2335 32.95L35.0835 33.25V30.4167H34.5835C33.9502 30.4167 33.4169 31 33.4169 31.7167Z" fill="#4752E1"/>
<path d="M37.5835 39.5833H38.0835C38.7335 39.5833 39.2502 39 39.2502 38.2833C39.2502 37.3833 39.0002 37.25 38.4335 37.05L37.5835 36.75V39.5833Z" fill="#4752E1"/>
<path d="M48.9669 24.1333L45.5502 27.55C45.3002 27.8 44.9835 27.9167 44.6669 27.9167C44.3502 27.9167 44.0335 27.8 43.7835 27.55C43.3002 27.0667 43.3002 26.2667 43.7835 25.7833L47.2002 22.3667C44.2669 19.8667 40.4835 18.3333 36.3335 18.3333C27.1335 18.3333 19.6669 25.8 19.6669 35C19.6669 44.2 27.1335 51.6667 36.3335 51.6667C45.5335 51.6667 53.0002 44.2 53.0002 35C53.0002 30.85 51.4669 27.0667 48.9669 24.1333ZM39.2502 34.7C40.3169 35.0833 41.7502 35.85 41.7502 38.3C41.7502 40.3833 40.1002 42.1 38.0835 42.1H37.5835V42.5167C37.5835 43.2 37.0169 43.7667 36.3335 43.7667C35.6502 43.7667 35.0835 43.2 35.0835 42.5167V42.1H34.9502C32.7335 42.1 30.9169 40.2333 30.9169 37.9333C30.9169 37.2333 31.4835 36.6667 32.1669 36.6667C32.8502 36.6667 33.4169 37.2333 33.4169 37.9167C33.4169 38.8333 34.1002 39.5833 34.9502 39.5833H35.0835V35.8833L33.4169 35.3C32.3502 34.9167 30.9169 34.15 30.9169 31.7C30.9169 29.6167 32.5669 27.9 34.5835 27.9H35.0835V27.5C35.0835 26.8167 35.6502 26.25 36.3335 26.25C37.0169 26.25 37.5835 26.8167 37.5835 27.5V27.9167H37.7169C39.9335 27.9167 41.7502 29.7833 41.7502 32.0833C41.7502 32.7667 41.1835 33.3333 40.5002 33.3333C39.8169 33.3333 39.2502 32.7667 39.2502 32.0833C39.2502 31.1667 38.5669 30.4167 37.7169 30.4167H37.5835V34.1167L39.2502 34.7Z" fill="#3941AB"/>
<path d="M54.1502 17.85C54.0168 17.55 53.7835 17.3 53.4668 17.1667C53.3168 17.1167 53.1668 17.0833 53.0002 17.0833H46.3335C45.6502 17.0833 45.0835 17.65 45.0835 18.3333C45.0835 19.0167 45.6502 19.5833 46.3335 19.5833H49.9835L47.2002 22.3667C47.8335 22.9167 48.4168 23.5 48.9668 24.1333L51.7502 21.35V25C51.7502 25.6833 52.3168 26.25 53.0002 26.25C53.6835 26.25 54.2502 25.6833 54.2502 25V18.3333C54.2502 18.1667 54.2168 18.0167 54.1502 17.85Z" fill="#3941AB"/>
</svg>
