<svg width="73" height="70" viewBox="0 0 73 70" fill="none" xmlns="http://www.w3.org/2000/svg">
<rect x="0.666748" width="72" height="70" rx="6" fill="white"/>
<path d="M48.0168 25.4167H50.2835C49.9668 24.9667 49.6335 24.55 49.2835 24.1333L48.0168 25.4167Z" fill="#4752E1"/>
<path d="M47.5333 22.3667C47.1167 22.0167 46.7 21.6833 46.25 21.3667V23.6333L47.5333 22.3667Z" fill="#4752E1"/>
<path d="M49.3001 24.1333L54.2168 19.2167C54.7001 18.7333 54.7001 17.9333 54.2168 17.45C53.7334 16.9667 52.9334 16.9667 52.4501 17.45L47.5334 22.3667C48.1668 22.9167 48.7501 23.5167 49.3001 24.1333Z" fill="#3941AB"/>
<path d="M46.2502 20C46.2502 19.3167 45.6835 18.75 45.0002 18.75C44.3335 18.75 43.8002 19.2833 43.7668 19.9333C44.6335 20.35 45.4668 20.8167 46.2502 21.3667V20Z" fill="#3941AB"/>
<path d="M52.9168 26.6667C52.9168 25.9833 52.3501 25.4167 51.6668 25.4167H50.2834C50.8334 26.2 51.3168 27.0333 51.7168 27.9C52.3834 27.8667 52.9168 27.3333 52.9168 26.6667Z" fill="#3941AB"/>
<path d="M37.9167 39.5833H38.4167C39.0667 39.5833 39.5834 39 39.5834 38.2833C39.5834 37.3833 39.3334 37.25 38.7667 37.05L37.9167 36.75V39.5833Z" fill="#3941AB"/>
<path d="M51.7333 27.9C51.7167 27.9 51.7 27.9167 51.6667 27.9167H45C44.8333 27.9167 44.6833 27.8833 44.5167 27.8167C44.2167 27.6833 43.9667 27.45 43.8333 27.1333C43.7833 26.9833 43.75 26.8333 43.75 26.6667V20C43.75 19.9833 43.7667 19.9667 43.7667 19.9333C41.6 18.9167 39.2 18.3333 36.6667 18.3333C27.4667 18.3333 20 25.8 20 35C20 44.2 27.4667 51.6667 36.6667 51.6667C45.8667 51.6667 53.3333 44.2 53.3333 35C53.3333 32.4667 52.75 30.0667 51.7333 27.9ZM39.5833 34.7C40.65 35.0667 42.0833 35.85 42.0833 38.3C42.0833 40.3833 40.4333 42.1 38.4167 42.1H37.9167V42.5167C37.9167 43.2 37.35 43.7667 36.6667 43.7667C35.9833 43.7667 35.4167 43.2 35.4167 42.5167V42.1H35.2833C33.0667 42.1 31.25 40.2333 31.25 37.9333C31.25 37.2333 31.8167 36.6667 32.5 36.6667C33.1833 36.6667 33.75 37.2333 33.75 37.9167C33.75 38.8333 34.4333 39.5833 35.2833 39.5833H35.4167V35.8833L33.75 35.3C32.6833 34.9333 31.25 34.15 31.25 31.7C31.25 29.6167 32.9 27.9 34.9167 27.9H35.4167V27.5C35.4167 26.8167 35.9833 26.25 36.6667 26.25C37.35 26.25 37.9167 26.8167 37.9167 27.5V27.9167H38.05C40.2667 27.9167 42.0833 29.7833 42.0833 32.0833C42.0833 32.7667 41.5167 33.3333 40.8333 33.3333C40.15 33.3333 39.5833 32.7667 39.5833 32.0833C39.5833 31.1667 38.9 30.4167 38.05 30.4167H37.9167V34.1167L39.5833 34.7Z" fill="#3941AB"/>
<path d="M33.75 31.7167C33.75 32.6167 34 32.75 34.5667 32.95L35.4167 33.25V30.4167H34.9167C34.2833 30.4167 33.75 31 33.75 31.7167Z" fill="#3941AB"/>
</svg>
