<svg width="72" height="70" viewBox="0 0 72 70" fill="none" xmlns="http://www.w3.org/2000/svg">
<rect x="-0.000488281" width="72" height="70" rx="6" fill="white"/>
<path d="M47.9496 26.0667C47.2329 22.45 44.5496 20.8667 40.8163 20.8667H26.1829C21.7829 20.8667 18.8496 23.0667 18.8496 28.2V36.7834C18.8496 40.4834 20.3663 42.65 22.8663 43.5834C23.2329 43.7167 23.6329 43.8334 24.0496 43.9C24.7163 44.05 25.4329 44.1167 26.1829 44.1167H40.8329C45.2329 44.1167 48.1663 41.9167 48.1663 36.7834V28.2C48.1663 27.4167 48.0996 26.7167 47.9496 26.0667ZM25.2163 35C25.2163 35.6834 24.6496 36.25 23.9663 36.25C23.2829 36.25 22.7163 35.6834 22.7163 35V30C22.7163 29.3167 23.2829 28.75 23.9663 28.75C24.6496 28.75 25.2163 29.3167 25.2163 30V35ZM33.4996 36.9C31.0663 36.9 29.0996 34.9334 29.0996 32.5C29.0996 30.0667 31.0663 28.1 33.4996 28.1C35.9329 28.1 37.8996 30.0667 37.8996 32.5C37.8996 34.9334 35.9329 36.9 33.4996 36.9ZM44.2663 35C44.2663 35.6834 43.6996 36.25 43.0163 36.25C42.3329 36.25 41.7663 35.6834 41.7663 35V30C41.7663 29.3167 42.3329 28.75 43.0163 28.75C43.6996 28.75 44.2663 29.3167 44.2663 30V35Z" fill="#3941AB"/>
<path d="M53.1663 33.2V41.7833C53.1663 46.9167 50.2329 49.1334 45.8163 49.1334H31.1829C29.9329 49.1334 28.8163 48.95 27.8496 48.5833C27.0663 48.3 26.3829 47.8834 25.8329 47.35C25.5329 47.0667 25.7663 46.6167 26.1829 46.6167H40.8163C46.9829 46.6167 50.6496 42.95 50.6496 36.8V28.2C50.6496 27.8 51.0996 27.55 51.3829 27.85C52.5163 29.05 53.1663 30.8 53.1663 33.2Z" fill="#3941AB"/>
</svg>
