<svg width="26" height="25" viewBox="0 0 26 25" fill="none" xmlns="http://www.w3.org/2000/svg">
<rect x="0.285645" width="25.7143" height="25" rx="5" fill="white"/>
<path d="M12.1006 11.3274C12.1006 11.6488 12.1899 11.6964 12.3923 11.7679L12.6958 11.875V10.8631H12.5173C12.2911 10.8631 12.1006 11.0714 12.1006 11.3274Z" fill="#4752E1"/>
<path d="M13.5889 14.1369H13.7674C13.9996 14.1369 14.1841 13.9286 14.1841 13.6726C14.1841 13.3512 14.0948 13.3036 13.8924 13.2321L13.5889 13.125V14.1369Z" fill="#4752E1"/>
<path d="M17.6542 8.61905L16.434 9.83929C16.3447 9.92858 16.2316 9.97024 16.1185 9.97024C16.0054 9.97024 15.8923 9.92858 15.803 9.83929C15.6304 9.66667 15.6304 9.38096 15.803 9.20834L17.0233 7.9881C15.9757 7.09524 14.6245 6.54762 13.1423 6.54762C9.85661 6.54762 7.18994 9.21429 7.18994 12.5C7.18994 15.7857 9.85661 18.4524 13.1423 18.4524C16.428 18.4524 19.0947 15.7857 19.0947 12.5C19.0947 11.0179 18.5471 9.66667 17.6542 8.61905ZM14.184 12.3929C14.5649 12.5298 15.0768 12.8036 15.0768 13.6786C15.0768 14.4226 14.4876 15.0357 13.7673 15.0357H13.5888V15.1845C13.5888 15.4286 13.3864 15.631 13.1423 15.631C12.8983 15.631 12.6959 15.4286 12.6959 15.1845V15.0357H12.6483C11.8566 15.0357 11.2078 14.3691 11.2078 13.5476C11.2078 13.2976 11.4102 13.0952 11.6542 13.0952C11.8983 13.0952 12.1007 13.2976 12.1007 13.5417C12.1007 13.8691 12.3447 14.1369 12.6483 14.1369H12.6959V12.8155L12.1007 12.6071C11.7197 12.4702 11.2078 12.1964 11.2078 11.3214C11.2078 10.5774 11.7971 9.96429 12.5173 9.96429H12.6959V9.82143C12.6959 9.57738 12.8983 9.375 13.1423 9.375C13.3864 9.375 13.5888 9.57738 13.5888 9.82143V9.97024H13.6364C14.428 9.97024 15.0768 10.6369 15.0768 11.4583C15.0768 11.7024 14.8745 11.9048 14.6304 11.9048C14.3864 11.9048 14.184 11.7024 14.184 11.4583C14.184 11.131 13.9399 10.8631 13.6364 10.8631H13.5888V12.1845L14.184 12.3929Z" fill="#5769F4"/>
<path d="M19.5057 6.37501C19.4581 6.26786 19.3747 6.17858 19.2616 6.13096C19.2081 6.1131 19.1545 6.1012 19.095 6.1012H16.714C16.47 6.1012 16.2676 6.30358 16.2676 6.54762C16.2676 6.79167 16.47 6.99405 16.714 6.99405H18.0176L17.0235 7.9881C17.2497 8.18453 17.4581 8.39286 17.6545 8.61905L18.6485 7.62501V8.92858C18.6485 9.17263 18.8509 9.37501 19.095 9.37501C19.339 9.37501 19.5414 9.17263 19.5414 8.92858V6.54762C19.5414 6.4881 19.5295 6.43453 19.5057 6.37501Z" fill="#5769F4"/>
</svg>
