<svg width="27" height="25" viewBox="0 0 27 25" fill="none" xmlns="http://www.w3.org/2000/svg">
<rect x="0.785645" width="25.7143" height="25" rx="5" fill="white"/>
<path d="M18.9821 14.9286C18.8392 16.5179 17.6904 17.5595 16.0238 17.5595H10.6666C9.02376 17.5595 7.69043 16.2262 7.69043 14.5833V10.4167C7.69043 8.79762 8.66662 7.66667 10.1845 7.47619C10.3392 7.45238 10.5 7.44048 10.6666 7.44048H16.0238C16.1785 7.44048 16.3273 7.44643 16.4702 7.47024C17.8928 7.6369 18.8571 8.63095 18.9821 10.0714C19 10.244 18.8571 10.3869 18.6845 10.3869H17.7619C17.1904 10.3869 16.6607 10.6071 16.2797 11C15.8273 11.4405 15.6011 12.0595 15.6547 12.6786C15.75 13.7619 16.7023 14.6131 17.8333 14.6131H18.6845C18.8571 14.6131 19 14.756 18.9821 14.9286Z" fill="#6B86F4"/>
<path d="M19.595 11.8869V13.1131C19.595 13.4405 19.3331 13.7083 18.9998 13.7202H17.8331C17.1903 13.7202 16.601 13.25 16.5474 12.6072C16.5117 12.2322 16.6546 11.881 16.9046 11.6369C17.1248 11.4107 17.4284 11.2798 17.7617 11.2798H18.9998C19.3331 11.2917 19.595 11.5595 19.595 11.8869Z" fill="#6B86F4"/>
</svg>
